<svg xmlns="http://www.w3.org/2000/svg" xmlns:xlink="http://www.w3.org/1999/xlink" x="0px" y="0px" width="23px" height="46px" viewBox="0 0 23 46" enable-background="new 0 0 23 46" xml:space="preserve">
<path fill="#A65E3F" d="M21.839,15.648C18.755,7.393,9.362,0,9.362,0S4.163,5.789,0.786,15.745
	c-2.121,6.249,0.133,12.511,5.73,14.066c0.289-5.889,2.26-12.595,2.336-13.42c-0.319,4.562-0.036,14.292-0.036,14.292
	C8.809,30.797,8.761,35.333,9.522,46l0.658-0.16C9.45,35.502,9.464,30.872,9.472,30.783c0,0,0.407-13.33,0.4-14.758
	c0,0,1.433,10.871,2.389,14.719c0.399,0.024,2.556-0.117,2.959-0.188C21.578,29.462,24.92,23.901,21.839,15.648z"></path>
</svg>