<svg xmlns="http://www.w3.org/2000/svg" xmlns:xlink="http://www.w3.org/1999/xlink" x="0px" y="0px" width="17px" height="48px" viewBox="0 0 17 48" enable-background="new 0 0 17 48" xml:space="preserve">
<path fill="#A65E3F" d="M15.479,2.852c0,0-2.911,6.957-4.587,14.625c-1.524,6.978-1.25,25.567-1.187,28.864
	c-0.491-1.702-1.271-4.181-1.479-5.113c-0.438-1.977-1.34-6.419-1.34-6.419c0.178-0.528,1.644-9.652-0.072-19.592
	C5.1,5.276,0.597,0,0.597,0s-1.09,1.38-0.324,11.165c0.766,9.784,6.152,23.831,6.152,23.831C8.338,45.68,10.117,48,10.117,48
	c0.153-1.787,0.144-10.483,0.144-10.483s4.657-8.155,6.231-18.085C18.067,9.501,15.479,2.852,15.479,2.852z"></path>
</svg>