<svg xmlns="http://www.w3.org/2000/svg" xmlns:xlink="http://www.w3.org/1999/xlink" x="0px" y="0px" width="22px" height="55px" viewBox="0 0 22 55" enable-background="new 0 0 22 55" xml:space="preserve">
<path fill="#A65E3F" d="M20.493,7.916c-2.338,3.307-3.374,9.438-3.714,16.415c-0.339,6.978-2.217,13.368-3.668,16.377
	c-1.27,2.634-2.4,9.597-3.621,12.633c0.116-3.379,0.926-11.363,1.386-13.138c0.523-2.017,1.27-7.376,1.685-11.81
	c0.414-4.434,0.246-9.043-0.293-14.366C11.728,8.704,9.171,0,9.171,0C8.054,0.623,7.466,5.61,7.38,9.299
	c-0.086,3.688,1.75,17.28,2.227,21.549c0.476,4.27,0.182,11.595,0.182,11.595c-0.454,4.824-0.718,8.899-0.787,10.683
	c-0.923-2.819-2.785-9.141-2.785-9.141s0.801-9.238-0.398-19.244c-1.2-10.004-4.185-14.119-4.185-14.119s-2.646,7.228-1.205,17.192
	c1.442,9.964,5.361,16.381,5.361,16.381C6.756,47.823,9.187,55,9.187,55l0.297-0.556c1.13-1.717,2.947-11.318,3.763-12.412
	c0.818-1.094,1.902-2.174,3.27-4.076c3.478-4.842,5.031-10.931,5.428-17.075C22.342,14.738,20.493,7.916,20.493,7.916z"></path>
</svg>