<svg xmlns="http://www.w3.org/2000/svg" xmlns:xlink="http://www.w3.org/1999/xlink" x="0px" y="0px" width="39.961px" height="57.909px" viewBox="0 0 39.961 57.909" enable-background="new 0 0 39.961 57.909" xml:space="preserve">
<path fill="#A55E3F" d="M14.608,56.627c-0.191-2.866-0.534-5.533-0.986-7.994c0.425-0.549,2.936-3.752,4.168-4.565
	c1.315,0.547,5.907,1.78,9.004-5.882c0,0-9.045-0.871-9.346,5.472c-1.152,0.797-3.149,3.252-3.961,4.282
	c-0.165-0.845-0.339-1.671-0.527-2.466c0.06-0.318,0.496-2.465,1.779-5.699c1.257-1.016,3.861-3.049,5.064-3.701
	c1.161,0.515,5.924,2.036,9.107-5.838c0,0-8.931-0.857-9.335,5.361c-1.12,0.602-3.185,2.187-4.42,3.163
	c1.563-3.692,4.156-8.546,8.358-13.654c1.41-0.066,7.262-0.934,6.393-10.868c0,0-9.81,3.857-6.832,10.564
	c-3.482,4.239-5.87,8.308-7.484,11.696c-0.217-1.657-0.806-6.056-1.499-10.545l0.344,0.105c0.571-1.868,1.569-4.529,2.193-5.238
	c1.229-0.034,7.373-0.709,6.482-10.871c0,0-9.755,3.836-6.857,10.508c-0.86,0.977-1.853,3.937-2.223,5.107
	c-0.722-4.636-1.545-9.271-2.18-11.001c1.657-0.83,7.167-4.486,1.864-14.564c0,0-9.053,8.802-2.378,14.696
	c1.357,3.523,3.788,22.34,3.813,22.537l0.105-0.014c-0.36,0.786-0.677,1.53-0.956,2.227c-0.071,0.058-0.126,0.103-0.142,0.115
	l0.064,0.078c-0.817,2.067-1.291,3.691-1.544,4.687c-0.693-2.708-1.502-5.11-2.34-7.211c0.141-0.686,0.756-3.828,0.742-6.115
	c0.845-0.779,4.492-4.79-1.966-11.078c0,0-4.323,8.208,1.433,11.045c0.015,1.71-0.348,3.985-0.577,5.243
	c-2.241-5.334-4.591-8.526-5.435-9.581c1.088-1.135,3.842-5.017-2.174-10.874c0,0-4.486,8.51,1.751,11.196
	c1,1.245,4.319,5.756,6.893,13.538c-1.121-0.53-3.729-1.863-4.958-3.315c0.455-1.296,1.359-5.692-6.04-8.238
	c0,0-0.373,8.612,5.645,8.597c1.548,1.812,4.948,3.369,5.578,3.647c1.434,4.523,2.598,10.097,2.929,16.729l0.532-0.026
	C14.676,57.646,14.656,57.14,14.608,56.627z"></path>
<path fill="#A55E3F" d="M16.515,56.857c0,0,0.539-0.775,1.839-1.437s8.775-4.694,10.158-6.431c0,0,3.117-8.188,5.313-10.524
	s4.268-3.286,5.481-1.749s1.204,4.314-4.119,8.363s-6.311,4.476-6.311,4.476S22.979,53.971,16.515,56.857z"></path>
</svg>