<?xml version="1.0" standalone="no"?>
<!DOCTYPE svg PUBLIC "-//W3C//DTD SVG 20010904//EN"
 "http://www.w3.org/TR/2001/REC-SVG-20010904/DTD/svg10.dtd">
<svg version="1.0" xmlns="http://www.w3.org/2000/svg"
 width="275.000000pt" height="183.000000pt" viewBox="0 0 275.000000 183.000000"
 preserveAspectRatio="xMidYMid meet">

<g transform="translate(0.000000,183.000000) scale(0.100000,-0.100000)"
fill="#000000" stroke="none">
<path d="M1255 1510 c-173 -35 -341 -163 -420 -321 -165 -327 -7 -719 341
-845 113 -41 105 -56 102 184 l-3 207 -77 3 -78 3 0 89 0 90 80 0 80 0 0 103
c0 114 15 161 66 209 54 50 155 70 267 52 l37 -7 0 -78 0 -79 -59 0 c-49 0
-65 -4 -88 -24 -25 -21 -28 -31 -31 -100 l-4 -76 86 0 c98 0 92 9 75 -104
l-11 -75 -72 -3 -71 -3 -3 -207 c-3 -240 -11 -225 102 -184 194 70 346 236
391 428 49 209 -11 416 -165 570 -84 84 -170 133 -285 163 -62 16 -192 18
-260 5z"/>
</g>
</svg>
