<?xml version="1.0" standalone="no"?>
<!DOCTYPE svg PUBLIC "-//W3C//DTD SVG 20010904//EN"
 "http://www.w3.org/TR/2001/REC-SVG-20010904/DTD/svg10.dtd">
<svg version="1.0" xmlns="http://www.w3.org/2000/svg"
 width="225.000000pt" height="225.000000pt" viewBox="0 0 225.000000 225.000000"
 preserveAspectRatio="xMidYMid meet">

<g transform="translate(0.000000,225.000000) scale(0.100000,-0.100000)"
fill="#000000" stroke="none">
<path d="M0 1125 l0 -1125 1125 0 1125 0 0 1125 0 1125 -1125 0 -1125 0 0
-1125z m1003 486 c87 -115 164 -216 170 -225 11 -15 36 11 197 203 l185 220
124 1 c116 0 123 -1 110 -17 -8 -10 -119 -143 -247 -295 -128 -152 -233 -280
-232 -285 0 -4 128 -176 283 -381 155 -205 284 -377 285 -382 2 -6 -87 -10
-235 -10 l-238 1 -175 234 c-96 129 -178 233 -182 232 -4 -1 -95 -107 -203
-234 l-196 -233 -125 0 -124 0 192 228 c106 125 226 266 266 314 l74 87 -281
371 c-155 203 -281 372 -281 375 0 3 107 5 238 5 l237 0 158 -209z"/>
<path d="M797 1468 c93 -123 281 -371 418 -552 137 -180 254 -330 260 -333 7
-2 40 -3 75 -1 l62 3 -416 550 -417 550 -75 3 -76 3 169 -223z"/>
</g>
</svg>
